<svg xmlns="http://www.w3.org/2000/svg" viewBox="0 0 500 400" width="100%" height="100%">
  <g transform="rotate(16 250 220)">
    <path d="M 330,70 C 340,80 342,95 338,105" fill="none" stroke="#1D61F2" stroke-width="6" stroke-linecap="round" />
    <path d="M 345,78 C 352,86 353,96 350,103" fill="none" stroke="#1D61F2" stroke-width="5" stroke-linecap="round" />

    <path d="M 140,85 C 143,85 145,88 143,92 C 141,95 137,95 135,92 C 135,88 138,85 140,85 Z" fill="#1D61F2" />
    <path d="M 125,100 C 128,100 130,103 128,107 C 126,110 122,110 120,107 C 120,103 122,100 125,100 Z" fill="#1D61F2" />

    <path d="M 225,107 L 135,90 C 120,115 120,125 135,145 L 225,117 Z" fill="#1D61F2" />
    
    <path d="M 130,90 
             C 110,75 85,85 85,110 
             C 65,115 65,140 80,150 
             C 75,170 100,185 115,170 
             C 135,180 155,160 145,140 
             C 160,120 150,95 130,90 Z" fill="#1D61F2" />

    <path d="M 230,90 C 230,82 236,80 250,80 C 264,80 270,82 270,90 L 270,115 L 230,115 Z" fill="#1D61F2" />
    <path d="M 242,95 C 242,92 245,90 248,90 C 251,90 253,92 253,95 L 253,103 C 253,106 251,108 248,108 C 245,108 242,106 242,103 Z" fill="#FFFFFF" />

    <path d="M 220,115 L 280,115 C 290,115 295,120 292,128 L 285,140 L 215,140 L 208,128 C 205,120 210,115 220,115 Z" fill="#1D61F2" />
    <path d="M 215,140 L 285,140 L 295,145 L 205,145 Z" fill="#FFFFFF" />

    <path d="M 205,145 L 295,145 L 315,310 C 315,335 185,335 185,310 Z" fill="#1D61F2" />

    <path d="M 282,165 L 292,165 C 297,220 305,260 297,300 L 288,298 C 295,260 288,220 282,165 Z" fill="#FFFFFF" opacity="0.9" />
    <path d="M 294,307 C 293,313 285,317 278,318 C 282,315 290,311 294,307 Z" fill="#FFFFFF" />
    <circle cx="215" cy="170" r="2.5" fill="#FFFFFF" />
    <circle cx="216" cy="180" r="1.5" fill="#FFFFFF" />
    <circle cx="222" cy="173" r="1.5" fill="#FFFFFF" />
    <circle cx="203" cy="305" r="2.5" fill="#FFFFFF" />
    <circle cx="208" cy="315" r="1.5" fill="#FFFFFF" />
    <circle cx="212" cy="308" r="2" fill="#FFFFFF" />
  </g>
</svg>
